HIERARCHY
ROOT Hips
{
  OFFSET -33.9132 29.2015 117.021
  CHANNELS 6 Xposition Yposition Zposition Zrotation Xrotation Yrotation
  JOINT LeftUpLeg
  {
    OFFSET 8.64259 1.95398 -2.38835
    CHANNELS 3 Zrotation Xrotation Yrotation
    JOINT LeftLeg
    {
      OFFSET 43.7702 0 0
      CHANNELS 3 Zrotation Xrotation Yrotation
      JOINT LeftFoot
      {
        OFFSET 40.6238 0 0
        CHANNELS 3 Zrotation Xrotation Yrotation
        JOINT LeftToeBase
        {
          OFFSET 12.7242 0 0
          CHANNELS 3 Zrotation Xrotation Yrotation
          End Site
          {
            OFFSET 0 0 0
          }
        }
      }
    }
  }
  JOINT RightUpLeg
  {
    OFFSET -8.2249 1.95398 -2.59336
    CHANNELS 3 Zrotation Xrotation Yrotation
    JOINT RightLeg
    {
      OFFSET 43.5653 0 0
      CHANNELS 3 Zrotation Xrotation Yrotation
      JOINT RightFoot
      {
        OFFSET 40.6238 0 0
        CHANNELS 3 Zrotation Xrotation Yrotation
        JOINT RightToeBase
        {
          OFFSET 12.7242 0 0
          CHANNELS 3 Zrotation Xrotation Yrotation
          End Site
          {
            OFFSET 0 0 0
          }
        }
      }
    }
  }
  JOINT Spine
  {
    OFFSET 0.165834 0.87714 6.61349
    CHANNELS 3 Zrotation Xrotation Yrotation
    JOINT Spine1
    {
      OFFSET 7.38963 1.71661e-005 0
      CHANNELS 3 Zrotation Xrotation Yrotation
      JOINT Spine2
      {
        OFFSET 11.9445 1.14441e-005 0
        CHANNELS 3 Zrotation Xrotation Yrotation
        JOINT Spine3
        {
          OFFSET 14.7254 4.19617e-005 0
          CHANNELS 3 Zrotation Xrotation Yrotation
          JOINT Spine4
          {
            OFFSET 10.9679 0 0
            CHANNELS 3 Zrotation Xrotation Yrotation
            JOINT RightShoulder
            {
              OFFSET 2.46616 -1.6653 3.69651
              CHANNELS 3 Zrotation Xrotation Yrotation
              JOINT RightArm
              {
                OFFSET 13.0012 0 0
                CHANNELS 3 Zrotation Xrotation Yrotation
                JOINT RightForeArm
                {
                  OFFSET 28.7848 1.62311e-005 0
                  CHANNELS 3 Zrotation Xrotation Yrotation
                  JOINT RightHand
                  {
                    OFFSET 26.5688 1.62095e-005 0
                    CHANNELS 3 Zrotation Xrotation Yrotation
                    End Site
                    {
                      OFFSET 0 0 0
                    }
                  }
                }
              }
            }
            JOINT LeftShoulder
            {
              OFFSET 2.38034 -1.29275 -3.7523
              CHANNELS 3 Zrotation Xrotation Yrotation
              JOINT LeftArm
              {
                OFFSET 16.3182 6.07031e-005 0
                CHANNELS 3 Zrotation Xrotation Yrotation
                JOINT LeftForeArm
                {
                  OFFSET 27.0901 0 0
                  CHANNELS 3 Zrotation Xrotation Yrotation
                  JOINT LeftHand
                  {
                    OFFSET 24.5451 1.51738e-005 0
                    CHANNELS 3 Zrotation Xrotation Yrotation
                    End Site
                    {
                      OFFSET 0 0 0
                    }
                  }
                }
              }
            }
            JOINT Neck
            {
              OFFSET 5.0226 -0.0266342 0
              CHANNELS 3 Zrotation Xrotation Yrotation
              JOINT Head
              {
                OFFSET 6.69364 2.86102e-005 0
                CHANNELS 3 Zrotation Xrotation Yrotation
                End Site
                {
                  OFFSET 0 0 0
                }
              }
            }
          }
        }
      }
    }
  }
}
MOTION
Frames:	6
Frame Time:	0.0416667
20.1795 98.5033 -11.8356 153.086 -81.5374 153.369 -176.096 16.2835 86.838 -7.76664 -18.0278 -2.0084 61.6984 1.92236 -1.63124 16.0638 -9.24511 5.37777 172.942 -8.91174 90.5039 -20.4155 -7.83798 -0.248275 75.4724 -7.99995 -1.9179 29.2502 -0.731635 2.09326 1.53428 8.19997 -90.1059 10.483 3.00762 -0.476976 -1.18459 2.98372 -0.609003 -23.7474 3.0118 0.449839 -3.73478 3.0118 0.449835 90.3735 -24.0404 -108.455 40.1806 4.93478 -22.4506 -5.60833 -46.2268 -5.64217 -21.3859 3.07107 -21.8906 -86.8852 -52.5836 83.8075 -21.2951 -9.87574 10.6903 -10.1987 35.4024 -0.0680989 3.63438 -0.659613 -20.7025 -4.35595 -3.00965 5.33995 -1.91803 -3.56339 -3.62327 
21.9543 97.7898 -4.75535 150.592 -80.5947 151.291 -175.529 14.3024 85.9446 -9.12256 -21.2112 -3.15093 58.218 0.092666 -0.189805 13.1943 -9.65822 3.40765 171.197 -14.0518 88.9261 -20.0059 -8.99919 0.123631 74.2697 -8.4726 -2.54975 34.95 -3.11518 1.7676 1.62063 8.079 -90.1188 10.7264 3.1726 -0.527786 -0.940823 3.1463 -0.667047 -23.5068 3.1844 0.451104 -3.49418 3.1844 0.451102 89.8626 -24.9043 -109.164 41.8268 3.88442 -22.6331 -5.28006 -41.7179 -5.4383 -21.7858 3.07972 -21.6087 -85.6474 -52.1721 85.5638 -22.5219 -11.2038 11.6534 -9.63679 32.6022 -0.538805 4.27888 -0.78452 -20.2384 -4.91991 -1.46413 5.5851 -2.78396 -1.99888 -2.38909 
24.2177 97.8405 2.75828 143.98 -79.6954 144.651 -174.27 15.4814 84.4157 -20.0744 -14.9324 -4.15836 64.4802 2.27452 1.52389 -0.723047 -15.5773 0.376812 168.531 -14.4049 85.7589 -25.9243 -12.1278 0.634957 67.0459 -4.30995 -1.39767 44.9331 -7.22239 0.47951 1.61745 7.87807 -89.9967 11.126 3.22105 -0.306228 -0.540994 3.20444 -0.447851 -23.1074 3.164 0.676989 -3.09475 3.16401 0.676984 89.0294 -26.8071 -110.05 44.8971 2.86657 -19.7149 -5.24154 -41.1442 -5.41584 -19.0814 2.58664 -21.0698 -84.6512 -50.9009 86.8769 -23.4711 -13.0301 10.4941 -9.08869 30.8525 -0.530481 5.39648 -0.930926 -19.3328 -4.5926 0.495627 5.31776 -4.26684 -0.0159101 -1.64885 
27.0006 97.8418 9.04614 141.729 -77.4061 140.713 -174.241 11.4435 81.5604 -24.4524 -14.0875 -4.49605 70.606 6.32396 1.38292 0.691993 -16.1263 2.111 167.152 -6.07619 80.9088 -45.9146 -19.562 -1.43337 57.4523 1.81457 0.0512182 36.4656 -4.23588 5.30882 1.57791 7.97601 -89.8033 10.9243 3.23256 0.0867303 -0.742599 3.23324 -0.0557904 -23.3076 3.0569 1.05515 -3.29491 3.05689 1.05515 88.5368 -27.1956 -110.886 48.1431 2.27349 -15.6929 -5.41418 -43.6376 -5.51851 -16.5211 2.27215 -21.4925 -84.6468 -50.3146 86.8124 -23.357 -13.1042 6.11844 -9.36036 29.5982 0.0312852 7.22361 -1.31758 -20.1612 -4.61325 2.55658 6.75465 -3.92305 1.88476 -1.29843 
29.6769 97.5791 13.9475 133.962 -74.0204 131.828 -174.758 7.14077 79.4978 -26.093 -11.1888 -4.6507 74.5933 9.01652 2.24218 2.54856 -15.2923 2.50768 171.676 3.78676 81.197 -64.2668 -22.9809 -5.02816 57.5829 1.68805 0.90887 24.5914 0.857759 3.71013 1.37473 8.13144 -89.723 10.609 2.86537 0.29127 -1.05878 2.87541 0.16477 -23.6161 2.64525 1.13955 -3.60349 2.64526 1.13955 88.9933 -27.2239 -109.939 50.4183 2.17354 -12.3737 -5.53764 -45.3154 -5.59645 -15.8275 2.29047 -22.3156 -85.3513 -50.8456 85.8237 -20.5401 -13.0073 0.00836895 -9.07882 31.7073 -0.140943 9.45302 -1.965 -22.3309 -5.2671 4.43628 9.22161 -3.39149 3.55893 -1.07968 
32.0004 97.7453 17.8176 119.219 -67.6879 118.193 -175.661 3.73423 79.5382 -25.4814 -3.95543 -3.47497 76.9203 11.3918 2.99652 2.81995 -15.7432 3.30037 177.274 10.9045 84.8699 -67.0649 -14.5298 -6.11877 62.3822 -1.8548 -2.3683 20.8175 1.84766 5.683 0.920175 8.14011 -89.9257 10.5949 1.86689 -0.0207313 -1.0747 1.86417 -0.102913 -23.62 1.78678 0.541487 -3.60734 1.78678 0.541473 90.1521 -27.3972 -107.482 51.3153 3.08745 -8.41795 -5.35588 -42.8175 -5.48333 -16.6605 2.25486 -21.183 -86.2361 -52.0939 84.6868 -16.2403 -13.3302 -7.57241 -8.87748 33.1744 -0.309742 10.3108 -2.30821 -23.8217 -6.49086 5.95089 9.42604 -3.44407 5.14326 1.6402 
